<?xml version="1.0" standalone="no"?>
<!DOCTYPE svg PUBLIC "-//W3C//DTD SVG 20010904//EN"
 "http://www.w3.org/TR/2001/REC-SVG-20010904/DTD/svg10.dtd">
<svg version="1.0" xmlns="http://www.w3.org/2000/svg"
 width="1054.000000pt" height="1054.000000pt" viewBox="0 0 1054.000000 1054.000000"
 preserveAspectRatio="xMidYMid meet">
<metadata>
Created by potrace 1.14, written by Peter Selinger 2001-2017
</metadata>
<g transform="translate(0.000000,1054.000000) scale(0.100000,-0.100000)"
fill="#000000" stroke="none">
<path d="M5169 10296 c-36 -18 -311 -197 -331 -214 -10 -8 -18 -12 -18 -8 0 4
-10 -2 -22 -14 -12 -11 -28 -20 -35 -20 -7 0 -13 -4 -13 -9 0 -5 -13 -14 -30
-21 -16 -7 -30 -16 -30 -20 0 -4 -13 -13 -30 -20 -16 -7 -30 -16 -30 -21 0 -5
-4 -9 -9 -9 -14 0 -115 -63 -124 -77 -4 -7 -12 -13 -18 -13 -10 0 -151 -90
-160 -103 -3 -5 -9 -8 -13 -8 -3 1 -43 -23 -89 -52 -45 -29 -120 -78 -167
-107 -47 -30 -87 -57 -90 -60 -3 -3 -21 -14 -40 -24 -19 -11 -37 -22 -40 -25
-10 -12 -112 -71 -121 -71 -6 0 -7 -4 -4 -10 3 -5 1 -10 -5 -10 -10 0 -122
-68 -147 -90 -7 -5 -14 -10 -17 -10 -2 0 -32 -18 -65 -40 -33 -22 -64 -40 -68
-40 -5 0 -24 -14 -43 -32 -26 -23 -31 -33 -20 -36 15 -5 215 -133 237 -152 7
-5 15 -10 18 -10 3 0 52 -30 108 -68 56 -37 114 -74 130 -81 15 -8 27 -18 27
-23 0 -4 7 -8 15 -8 8 0 15 -4 15 -10 0 -5 4 -10 10 -10 5 0 32 -14 59 -30 41
-26 55 -29 92 -24 88 12 146 5 213 -27 22 -11 46 -19 53 -19 7 0 13 -3 13 -8
0 -4 15 -14 33 -21 17 -8 55 -30 84 -48 29 -18 55 -33 58 -33 3 0 11 -5 18
-10 26 -23 147 -98 147 -92 0 4 4 2 8 -3 10 -15 180 -125 192 -125 5 0 10 -5
10 -11 0 -5 4 -8 9 -5 5 3 11 -1 15 -9 3 -8 12 -15 21 -15 8 0 15 -4 15 -10 0
-5 6 -10 13 -10 8 0 22 -9 32 -20 9 -10 20 -18 24 -18 5 2 132 -78 267 -168
28 -19 54 -34 58 -34 4 0 16 -9 28 -20 12 -11 34 -26 50 -32 15 -7 28 -15 28
-18 0 -3 20 -16 45 -30 25 -14 45 -28 45 -32 0 -5 6 -8 14 -8 7 0 19 -7 26
-15 7 -9 15 -13 18 -11 2 3 10 -1 18 -8 7 -8 55 -40 106 -72 51 -32 95 -62 96
-66 2 -4 8 -8 13 -8 6 0 43 -22 84 -50 41 -27 79 -50 85 -50 5 0 10 -4 10 -10
0 -5 6 -10 13 -10 8 0 22 -9 32 -20 10 -11 22 -17 26 -14 5 3 9 1 9 -3 0 -5
16 -17 35 -27 19 -11 35 -23 35 -28 0 -5 5 -6 10 -3 6 3 10 1 10 -4 0 -6 4
-11 9 -11 7 0 148 -88 187 -117 20 -16 50 -33 82 -50 17 -9 32 -21 32 -25 0
-5 5 -6 10 -3 6 3 10 2 10 -2 0 -5 23 -22 50 -38 28 -16 50 -33 50 -38 0 -4 4
-6 9 -3 5 4 11 2 13 -2 3 -9 101 -78 105 -74 2 1 13 -8 26 -21 13 -12 42 -39
65 -60 23 -21 42 -47 42 -57 0 -10 4 -21 10 -25 6 -4 6 -15 0 -30 -5 -14 -6
-25 -2 -25 4 0 0 -5 -8 -10 -19 -13 -1 -29 125 -108 50 -31 93 -61 97 -67 4
-5 8 -6 8 -2 0 4 9 -1 20 -11 12 -11 41 -30 65 -42 25 -13 45 -26 45 -29 0 -3
13 -12 28 -19 16 -6 38 -21 50 -32 12 -11 25 -20 29 -20 8 0 88 -51 111 -70 7
-6 28 -18 48 -26 35 -15 36 -15 112 33 99 61 144 90 159 103 7 5 16 10 20 10
4 0 21 11 37 25 16 14 34 25 40 25 6 0 23 11 38 24 14 14 28 23 31 20 2 -2 10
2 17 11 7 8 19 15 26 15 8 0 14 4 14 9 0 5 9 13 20 16 11 3 26 12 32 18 17 16
126 87 133 87 3 0 15 9 27 20 12 10 25 17 30 14 4 -3 8 -1 8 4 0 4 19 19 43
32 23 13 47 31 54 39 7 9 13 12 13 8 0 -5 7 -1 16 7 8 9 20 14 25 11 5 -4 9
-2 9 3 0 10 125 92 141 92 5 0 9 4 9 8 0 5 12 15 28 23 15 8 32 17 37 22 10 7
54 36 200 130 39 24 73 45 78 46 4 0 13 5 20 11 48 41 62 50 74 50 7 0 13 5
13 10 0 6 4 10 9 10 12 0 105 61 109 72 2 4 9 8 14 8 6 0 35 18 64 41 62 47
99 123 83 169 -9 23 -109 99 -151 113 -10 4 -18 11 -18 16 0 5 -11 12 -25 15
-14 4 -25 10 -25 15 0 5 -13 14 -30 21 -16 7 -30 16 -30 21 0 5 -5 9 -10 9
-11 0 -151 90 -161 103 -3 5 -10 9 -15 10 -16 2 -64 32 -64 40 0 4 -4 7 -9 7
-5 0 -38 19 -73 42 -72 49 -97 64 -118 74 -8 4 -24 15 -35 24 -11 9 -48 34
-83 54 -34 21 -69 44 -77 52 -8 9 -15 13 -15 9 0 -4 -7 1 -16 9 -8 9 -21 16
-28 16 -7 0 -21 9 -31 20 -10 11 -24 20 -32 20 -7 0 -13 5 -13 10 0 6 -7 10
-15 10 -8 0 -15 5 -15 10 0 6 -4 10 -9 10 -5 0 -42 21 -82 47 -67 45 -109 56
-117 32 -2 -5 -8 -7 -13 -3 -5 3 -9 1 -9 -4 0 -5 -13 -15 -29 -22 -16 -6 -37
-19 -47 -28 -11 -10 -73 -51 -139 -92 -66 -41 -129 -83 -139 -92 -11 -10 -26
-18 -33 -18 -7 0 -13 -3 -13 -8 0 -4 -12 -13 -27 -19 -16 -7 -41 -23 -57 -36
l-29 -23 71 -47 c39 -26 76 -47 82 -47 5 0 10 -4 10 -9 0 -6 18 -20 40 -32 22
-13 40 -27 40 -33 0 -5 3 -7 6 -3 3 3 14 -2 23 -11 23 -22 49 -43 81 -65 13
-9 20 -17 15 -17 -5 0 0 -7 12 -15 28 -20 65 -81 69 -114 6 -45 -15 -88 -64
-130 -63 -55 -61 -54 -109 -81 -24 -13 -43 -27 -43 -32 0 -4 -9 -8 -19 -8 -11
0 -23 -5 -26 -10 -10 -16 -114 -80 -129 -80 -7 0 -24 9 -37 19 -30 23 -84 56
-124 76 -16 8 -26 14 -20 15 5 0 -8 10 -30 21 -22 12 -42 24 -45 28 -8 10 -43
31 -62 37 -10 4 -18 10 -18 15 0 5 -5 9 -11 9 -6 0 -33 16 -59 35 -26 19 -50
35 -53 35 -4 0 -43 25 -87 55 -44 30 -83 55 -85 55 -3 0 -31 17 -63 39 -31 21
-72 46 -89 57 -18 10 -33 22 -33 26 0 4 -5 8 -10 8 -6 0 -38 18 -71 40 -33 22
-63 40 -65 40 -3 0 -16 10 -30 23 l-25 23 36 19 c19 11 35 24 35 29 0 5 3 7 6
3 6 -6 72 38 86 58 4 5 8 6 8 1 0 -4 15 3 34 18 19 14 37 26 41 26 3 0 11 5
18 10 21 19 117 79 117 74 0 -3 9 4 20 14 11 10 33 25 48 33 15 8 36 22 46 32
11 9 24 17 28 17 5 0 14 5 21 11 7 5 47 32 90 59 75 48 77 50 60 68 -10 11
-34 27 -53 38 -19 10 -41 25 -48 32 -8 6 -23 17 -35 24 -12 6 -66 40 -120 74
-53 35 -102 64 -107 64 -6 0 -10 4 -10 8 0 5 -17 17 -37 28 -36 18 -43 23 -77
52 -8 6 -18 12 -21 12 -4 0 -28 14 -53 32 -26 17 -59 40 -74 50 -15 10 -36 18
-47 18 -17 0 -209 -116 -248 -150 -7 -5 -24 -15 -38 -22 -14 -6 -25 -15 -25
-20 0 -4 -4 -8 -10 -8 -9 0 -208 -126 -237 -150 -7 -6 -14 -10 -17 -10 -2 0
-34 -20 -70 -44 -47 -30 -74 -42 -91 -38 -14 2 -25 7 -25 11 0 3 -21 18 -47
31 -27 14 -50 28 -53 31 -7 8 -160 109 -164 109 -5 0 -118 73 -219 141 -32 21
-60 39 -63 39 -3 0 -38 22 -78 50 -41 27 -76 46 -80 43 -3 -4 -6 -1 -6 5 0 6
-21 24 -47 39 -27 15 -50 30 -53 33 -3 4 -14 10 -25 14 -18 6 -17 9 10 31 17
13 35 24 41 25 6 0 19 9 29 20 10 11 21 17 25 15 5 -3 10 -2 12 3 4 11 135 92
148 92 5 0 10 5 10 12 0 6 3 8 7 5 3 -4 11 -3 17 2 30 25 145 48 226 46 47 -2
86 -4 88 -5 1 -1 7 -4 12 -5 6 -1 11 -3 13 -5 3 -2 40 -11 55 -12 6 -1 12 -6
12 -11 0 -6 2 -8 6 -5 5 5 128 -54 258 -125 41 -23 60 -28 63 -19 3 6 9 12 13
12 9 0 75 42 369 234 69 45 128 80 131 79 4 -1 12 9 18 22 7 14 8 25 3 25 -5
0 -43 23 -85 50 -42 28 -81 50 -86 50 -6 0 -10 4 -10 8 0 5 -12 15 -27 23 -15
8 -80 49 -145 92 -65 42 -121 77 -124 77 -2 0 -10 5 -17 10 -22 19 -117 79
-117 74 0 -3 -6 1 -14 8 -7 7 -22 18 -32 25 -11 7 -42 27 -69 45 -28 18 -63
39 -78 47 -14 8 -35 22 -44 31 -10 9 -25 19 -33 23 -8 4 -28 16 -45 27 -16 11
-43 27 -60 36 -16 9 -32 20 -35 23 -5 7 -56 40 -137 90 -59 37 -143 49 -184
27z"/>
<path d="M2985 8895 c-52 -35 -95 -61 -95 -58 0 2 -6 -2 -13 -9 -12 -12 -162
-109 -206 -133 -10 -6 -27 -17 -36 -25 -9 -8 -26 -19 -37 -25 -10 -5 -67 -41
-126 -79 -307 -200 -362 -235 -417 -270 -125 -78 -371 -236 -382 -246 -7 -5
-15 -10 -18 -10 -8 0 -68 -42 -76 -53 -3 -5 -8 -8 -10 -6 -4 2 -184 -112 -206
-131 -7 -5 -14 -10 -17 -10 -7 0 -176 -109 -197 -127 -13 -11 -14 -22 -6 -63
5 -27 18 -58 29 -69 10 -12 16 -21 12 -21 -4 0 21 -20 57 -45 35 -25 70 -45
77 -45 6 0 12 -3 12 -7 0 -5 28 -26 63 -47 34 -22 105 -68 158 -102 146 -94
173 -111 182 -112 4 -1 14 -7 22 -14 32 -29 74 -57 98 -64 9 -4 17 -11 17 -16
0 -5 5 -6 10 -3 6 3 10 1 10 -5 0 -6 11 -15 25 -20 14 -5 25 -15 25 -21 0 -7
3 -9 7 -6 3 4 20 -3 37 -16 17 -13 60 -41 96 -62 36 -22 71 -45 78 -51 6 -7
21 -16 32 -19 11 -3 20 -11 20 -16 0 -6 4 -8 9 -5 5 4 11 2 13 -2 3 -8 225
-152 235 -152 7 0 78 -54 81 -62 2 -5 8 -8 14 -8 5 0 48 -25 95 -55 87 -57
113 -63 144 -35 9 8 39 29 68 45 28 17 51 34 51 39 0 5 2 7 5 4 5 -5 152 85
182 111 7 6 17 11 23 11 5 0 10 5 10 10 0 6 7 10 15 10 8 0 15 4 15 9 0 5 9
11 20 14 31 8 24 20 -30 52 -27 17 -50 33 -50 38 0 4 -4 7 -10 7 -9 0 -72 39
-97 60 -7 5 -17 10 -23 10 -5 0 -10 4 -10 9 0 5 -8 11 -17 15 -17 5 -43 20
-67 39 -6 4 -63 42 -126 84 -63 41 -116 80 -118 84 -2 5 -7 9 -12 9 -14 0
-114 103 -138 142 -40 65 -30 132 29 186 20 19 59 19 59 1 0 -5 7 -9 15 -9 8
0 15 -3 15 -8 0 -4 13 -13 28 -20 16 -6 37 -20 48 -30 10 -9 33 -24 49 -32 17
-8 36 -21 43 -28 8 -7 28 -20 45 -29 18 -9 34 -19 37 -22 3 -4 55 -38 115 -76
61 -38 131 -84 157 -102 26 -18 50 -33 53 -33 6 0 183 -115 210 -136 11 -9 35
-23 53 -32 17 -9 32 -19 32 -24 0 -4 4 -8 10 -8 5 0 62 -35 127 -77 65 -43
123 -80 128 -82 6 -2 50 -31 98 -63 49 -32 93 -58 98 -58 5 0 9 -4 9 -8 0 -5
22 -21 49 -35 27 -15 54 -34 61 -42 7 -8 16 -15 21 -15 8 0 122 -70 145 -88 5
-5 21 -15 34 -22 13 -7 29 -17 34 -21 26 -22 168 -109 176 -109 6 0 10 -4 10
-10 0 -5 7 -10 15 -10 8 0 15 -4 15 -10 0 -5 6 -10 13 -10 7 0 23 -9 35 -20
12 -11 26 -20 32 -20 5 0 10 -4 10 -10 0 -5 5 -10 10 -10 6 0 44 -22 86 -50
41 -27 80 -50 85 -50 5 0 9 -4 9 -10 0 -5 7 -10 15 -10 8 0 15 -4 15 -10 0 -5
5 -10 10 -10 6 0 33 -16 60 -35 28 -19 50 -33 50 -31 0 3 11 -5 25 -17 43 -39
93 -77 100 -77 11 0 85 -81 86 -94 0 -6 2 -20 4 -30 2 -11 -3 -32 -11 -48 -9
-18 -11 -28 -4 -28 6 0 8 -4 5 -10 -3 -5 1 -10 10 -10 8 0 23 -9 32 -19 9 -11
20 -18 25 -15 4 3 8 0 8 -5 0 -6 5 -11 10 -11 6 0 16 -5 23 -10 19 -16 140
-94 170 -109 15 -8 27 -18 27 -22 0 -4 11 -10 25 -13 14 -4 25 -11 25 -16 0
-6 7 -10 15 -10 8 0 15 -5 15 -11 0 -5 5 -7 10 -4 6 3 10 2 10 -3 0 -5 12 -15
28 -23 15 -8 36 -22 46 -31 11 -10 26 -18 33 -18 7 0 13 -4 13 -10 0 -5 6 -10
14 -10 7 0 19 -7 26 -15 7 -8 16 -12 21 -9 5 3 9 1 9 -5 0 -21 52 -39 82 -29
15 6 28 14 28 20 0 5 5 6 10 3 6 -3 10 -2 10 4 0 6 15 18 33 27 17 9 35 22 39
28 4 6 8 7 8 3 0 -5 7 -2 15 5 32 29 45 38 45 33 0 -3 15 5 33 19 19 15 39 26
45 26 6 0 12 3 14 8 2 4 41 32 88 62 47 30 87 58 88 63 2 4 7 5 12 2 4 -3 13
2 20 10 7 8 19 15 26 15 8 0 14 4 14 8 0 5 12 15 28 23 15 8 32 18 37 22 6 4
48 32 95 62 159 101 179 120 135 131 -14 3 -25 10 -25 15 0 5 -7 9 -15 9 -8 0
-15 5 -15 10 0 6 -5 10 -10 10 -6 0 -44 23 -85 50 -41 28 -79 50 -85 50 -5 0
-10 5 -10 10 0 6 -7 10 -15 10 -8 0 -15 4 -15 8 0 8 -30 25 -55 32 -5 1 -16
11 -23 21 -7 11 -17 19 -22 19 -7 0 -172 102 -206 127 -30 23 -54 31 -80 28
-62 -9 -114 -12 -119 -6 -3 3 -16 6 -28 7 -43 2 -101 26 -202 84 -19 11 -52
30 -72 41 -21 12 -50 30 -65 40 -14 11 -29 19 -32 19 -3 0 -35 20 -71 45 -36
25 -65 42 -65 38 0 -4 -4 -3 -8 3 -10 15 -99 74 -111 74 -6 0 -11 5 -11 10 0
6 -7 10 -15 10 -8 0 -25 10 -37 23 -13 12 -39 31 -58 41 -19 11 -75 46 -124
78 -49 32 -93 58 -97 58 -5 0 -9 5 -9 10 0 6 -5 10 -11 10 -9 0 -97 55 -109
69 -3 3 -18 13 -35 21 -16 8 -38 22 -48 31 -10 9 -38 27 -62 39 -25 13 -45 27
-45 32 0 4 -5 8 -10 8 -6 0 -23 9 -38 19 -58 41 -213 141 -218 141 -8 0 -69
44 -72 53 -2 4 -8 7 -13 7 -6 0 -38 19 -72 42 -34 24 -65 42 -68 41 -4 -1 -15
7 -24 17 -10 11 -22 20 -27 20 -5 0 -18 9 -30 20 -12 11 -28 20 -35 20 -7 0
-13 5 -13 10 0 6 -6 10 -13 10 -8 0 -22 9 -32 20 -9 10 -20 18 -24 18 -3 -1
-67 38 -141 87 -74 50 -144 94 -155 98 -11 4 -22 11 -25 15 -9 12 -89 62 -100
62 -5 0 -10 4 -10 9 0 4 -20 19 -45 32 -25 13 -45 27 -45 31 0 5 -4 8 -9 8 -5
0 -40 20 -78 45 -37 25 -72 46 -77 48 -5 2 -4 12 2 23 6 10 12 16 12 11 0 -4
12 -1 28 7 64 33 220 37 297 6 17 -6 37 -13 45 -15 8 -2 36 -12 63 -24 26 -11
51 -21 55 -22 4 -2 13 -9 20 -16 8 -7 18 -11 23 -8 5 4 9 2 9 -2 0 -5 24 -21
53 -37 90 -47 112 -61 115 -68 2 -5 10 -8 18 -8 8 0 14 -4 14 -10 0 -5 6 -10
13 -10 8 0 22 -9 32 -20 10 -11 24 -20 32 -20 7 0 13 -5 13 -11 0 -5 4 -8 9
-5 5 3 12 -1 15 -9 3 -8 9 -15 13 -14 20 3 34 -2 28 -11 -3 -5 0 -10 8 -10 7
0 31 -13 53 -30 21 -16 45 -30 52 -30 6 0 12 -4 12 -10 0 -5 6 -10 13 -10 7 0
22 -8 33 -17 45 -40 59 -43 100 -21 22 11 60 36 85 54 26 19 49 34 53 34 3 0
35 20 70 45 35 24 66 41 70 38 3 -4 6 -2 6 3 0 5 16 18 35 28 19 11 35 23 35
28 0 5 5 6 10 3 6 -3 10 -2 10 3 0 5 13 15 28 21 33 14 40 47 11 56 -10 4 -19
10 -19 15 0 4 -11 11 -24 14 -14 3 -31 13 -39 21 -8 7 -66 46 -128 86 -130 81
-201 127 -243 155 -43 29 -67 44 -158 101 -46 29 -90 57 -98 63 -69 48 -263
170 -269 170 -4 0 -16 9 -26 20 -10 11 -22 20 -26 20 -8 0 -105 61 -126 80 -7
5 -16 10 -21 10 -4 0 -17 8 -28 18 -27 23 -55 41 -76 48 -10 4 -18 10 -18 15
0 5 -7 9 -15 9 -8 0 -15 5 -15 10 0 6 -5 10 -10 10 -11 0 -146 86 -168 108 -7
6 -18 12 -23 12 -6 0 -16 6 -24 13 -17 16 -107 70 -122 73 -7 1 -55 -26 -108
-61z"/>
<path d="M968 7323 c-2 -5 -3 -170 -3 -368 1 -329 3 -364 20 -402 10 -24 22
-43 27 -43 4 0 7 -3 6 -7 -1 -5 5 -24 14 -43 24 -53 48 -120 43 -120 -2 0 3
-16 11 -35 8 -19 12 -35 9 -35 -2 0 0 -11 5 -25 5 -14 12 -36 14 -48 11 -47
41 -152 46 -157 3 -3 7 -16 9 -30 2 -14 4 -30 5 -37 1 -7 5 -16 9 -19 4 -4 7
-20 7 -35 0 -15 5 -31 10 -34 6 -4 10 -12 9 -18 -2 -7 6 -39 16 -72 11 -33 20
-63 21 -67 1 -5 3 -10 4 -13 1 -3 3 -13 5 -22 2 -24 14 -69 32 -123 8 -25 16
-54 18 -65 1 -11 8 -32 14 -47 6 -16 9 -28 6 -28 -2 0 2 -18 10 -39 7 -22 16
-52 18 -68 3 -15 10 -40 16 -55 6 -16 8 -28 5 -28 -4 0 -2 -6 4 -12 5 -7 11
-26 13 -43 2 -16 7 -35 11 -40 4 -6 9 -23 12 -38 2 -15 8 -32 11 -37 4 -6 8
-21 10 -33 4 -27 34 -146 42 -167 12 -30 11 -41 -3 -68 -8 -15 -14 -32 -14
-39 0 -7 -6 -27 -14 -45 -21 -49 -29 -72 -28 -80 1 -5 -2 -8 -8 -8 -5 0 -10
-8 -10 -18 0 -10 -3 -22 -7 -26 -4 -3 -8 -16 -10 -28 -2 -12 -8 -25 -15 -29
-6 -4 -7 -12 -4 -18 4 -6 2 -11 -3 -11 -6 0 -10 -3 -9 -7 2 -9 -18 -61 -33
-87 -6 -10 -13 -30 -16 -45 -2 -14 -10 -29 -16 -33 -7 -4 -9 -8 -4 -8 4 0 1
-13 -7 -29 -9 -16 -12 -31 -9 -35 4 -3 1 -6 -5 -6 -7 0 -12 -7 -12 -15 0 -18
-32 -89 -43 -93 -4 -2 -5 -8 -2 -13 3 -4 -3 -28 -13 -51 -11 -24 -32 -77 -48
-118 -16 -41 -34 -86 -41 -99 -6 -14 -10 -28 -7 -33 3 -4 0 -8 -6 -8 -6 0 -9
-4 -6 -9 3 -4 -1 -17 -9 -27 -8 -10 -15 -27 -15 -36 0 -10 -5 -18 -11 -18 -5
0 -8 -4 -5 -8 14 -23 -81 -162 -111 -162 -7 0 -14 -3 -14 -7 -1 -5 -2 -145 -3
-313 l-2 -305 24 -45 c13 -25 30 -50 38 -56 8 -6 14 -15 14 -19 0 -24 208
-185 240 -185 5 0 10 -4 10 -9 0 -4 20 -19 45 -32 25 -13 45 -27 45 -31 0 -5
6 -8 14 -8 8 0 16 -4 18 -8 2 -4 24 -20 50 -35 26 -15 54 -34 62 -43 9 -8 16
-13 16 -9 0 3 13 -3 30 -15 16 -12 34 -19 38 -16 4 3 9 151 10 330 1 249 5
345 17 413 17 91 22 116 25 121 2 1 4 7 5 12 1 6 3 11 5 13 1 1 3 10 5 19 6
34 29 94 47 126 10 19 14 31 8 27 -5 -3 -3 7 4 22 25 49 40 88 37 97 -1 5 2
12 6 15 5 3 18 33 29 65 11 33 27 62 34 64 7 3 10 0 6 -6 -3 -6 -2 -13 3 -17
5 -3 10 -13 10 -23 0 -9 5 -37 11 -62 7 -25 13 -49 14 -55 1 -5 4 -14 7 -20 6
-9 24 -83 34 -133 2 -12 6 -26 9 -30 3 -5 8 -24 11 -43 3 -19 11 -52 16 -74 6
-22 12 -49 14 -60 2 -11 10 -40 16 -65 6 -25 13 -54 14 -65 2 -11 4 -20 5 -20
3 0 11 -40 14 -75 2 -19 6 -42 9 -50 3 -8 5 -22 6 -30 1 -45 10 -205 12 -207
6 -8 4 -30 -3 -46 -5 -10 -5 -17 1 -17 5 0 6 -14 2 -33 -5 -18 -5 -41 -1 -52
4 -11 2 -23 -4 -27 -6 -5 -7 -8 -1 -8 6 0 9 -24 7 -57 -5 -103 -4 -144 2 -150
3 -3 1 -12 -5 -20 -6 -7 -7 -13 -2 -13 5 0 8 -12 7 -27 -6 -61 -4 -95 5 -133
0 -3 31 -25 69 -49 37 -25 124 -82 195 -128 70 -45 131 -83 135 -83 5 0 17 -8
28 -18 16 -14 166 -112 239 -155 11 -7 37 -25 58 -41 27 -20 41 -26 49 -18 7
7 10 116 10 324 0 338 -2 408 -12 408 -6 0 -74 125 -76 139 0 4 -3 13 -7 21
-7 18 -40 122 -43 133 -1 4 -2 8 -4 10 -2 2 -7 22 -14 57 -3 14 -12 47 -20 74
-8 27 -13 53 -10 58 3 4 1 8 -4 8 -5 0 -9 6 -9 13 0 6 -9 42 -21 79 -12 37
-22 76 -22 87 0 11 -4 22 -10 26 -5 3 -7 12 -3 20 3 8 0 15 -6 15 -6 0 -8 7
-5 15 4 8 1 22 -6 30 -7 8 -10 15 -7 15 2 0 -4 30 -15 68 -10 37 -20 76 -23
86 -2 10 -9 33 -14 50 -6 17 -13 42 -15 56 -3 14 -13 52 -22 85 -9 33 -17 65
-18 72 -1 7 -5 16 -9 19 -4 4 -7 18 -7 31 0 14 -5 33 -10 43 -6 10 -11 30 -12
44 -1 15 -6 26 -10 26 -4 0 -7 3 -7 8 1 4 1 9 -1 12 -1 3 -3 16 -5 30 -6 32
-13 65 -15 65 -1 0 -3 7 -5 15 -2 8 -11 42 -21 75 -9 33 -18 67 -19 75 -2 8
-4 15 -5 15 -1 0 -3 11 -6 25 -2 14 -7 32 -11 40 -3 8 -7 23 -8 33 -2 9 -4 19
-5 22 -1 3 -3 8 -4 13 -1 4 -4 12 -7 17 -11 17 1 87 19 122 6 10 11 23 12 28
3 11 17 51 27 75 3 8 7 20 8 25 5 17 75 208 92 248 9 21 16 44 16 52 0 8 4 15
9 15 4 0 7 3 6 8 -2 6 6 32 40 122 3 8 6 18 6 22 1 3 4 10 9 14 4 4 7 16 7 26
0 10 5 18 12 18 6 0 9 3 5 6 -3 4 3 29 14 58 11 28 31 85 45 126 15 41 30 79
35 85 5 5 9 19 9 32 0 13 5 23 10 23 6 0 9 3 8 8 -7 23 74 121 111 133 7 3 11
118 11 373 l1 370 -28 22 c-15 13 -34 23 -40 24 -7 0 -13 5 -13 10 0 6 -7 10
-15 10 -8 0 -15 5 -15 10 0 6 -5 10 -10 10 -12 0 -154 92 -158 103 -2 4 -8 5
-13 1 -5 -3 -9 0 -9 5 0 6 -7 11 -15 11 -8 0 -15 5 -15 10 0 6 -6 10 -13 10
-7 0 -23 9 -35 20 -12 11 -25 20 -31 20 -5 0 -11 4 -13 9 -1 5 -10 11 -18 13
-8 2 -17 5 -20 9 -12 12 -102 69 -111 69 -5 0 -9 5 -9 10 0 6 -7 10 -15 10 -8
0 -15 5 -15 11 0 6 -5 9 -12 7 -9 -3 -13 -79 -15 -299 -1 -162 -4 -314 -7
-339 -11 -93 -34 -180 -76 -285 -18 -44 -33 -84 -35 -90 -1 -5 -8 -23 -14 -40
-7 -16 -14 -34 -15 -40 -2 -5 -7 -19 -11 -30 -4 -11 -14 -35 -22 -54 -14 -37
-29 -34 -36 9 -3 14 -10 45 -17 70 -7 25 -14 53 -16 62 -2 10 -6 26 -8 36
-132 527 -139 559 -140 694 -1 43 -3 78 -6 78 -3 0 -3 72 0 160 3 88 1 160 -3
160 -5 0 -5 5 -1 11 3 6 6 45 5 88 -2 81 -6 90 -71 123 -14 7 -34 21 -44 31
-11 9 -26 17 -33 17 -7 0 -13 5 -13 10 0 6 -6 10 -13 10 -8 0 -22 9 -32 20
-10 11 -20 18 -23 16 -2 -3 -31 15 -65 40 -34 24 -67 44 -74 44 -7 0 -13 5
-13 10 0 6 -6 10 -13 10 -8 0 -22 9 -32 20 -10 11 -22 20 -27 20 -6 0 -42 23
-82 50 -40 28 -77 50 -83 50 -6 0 -13 3 -15 8 -8 19 -105 76 -110 65z"/>
<path d="M9009 6945 c-3 -2 -18 -7 -34 -10 -46 -9 -78 -20 -107 -36 -10 -5
-22 -9 -27 -9 -19 0 -392 -217 -411 -240 -4 -5 -155 -101 -224 -143 -11 -7
-25 -16 -30 -20 -6 -4 -49 -32 -96 -62 -47 -29 -90 -58 -97 -64 -7 -6 -15 -11
-18 -11 -3 0 -46 -27 -97 -60 -50 -33 -93 -60 -95 -60 -2 0 -19 -11 -36 -24
-18 -14 -43 -31 -57 -38 -14 -7 -41 -24 -61 -38 l-36 -24 1 -105 c1 -58 -2
-114 -6 -123 -5 -10 -4 -19 2 -23 10 -6 7 -45 -4 -64 -4 -5 -3 -12 1 -14 5 -3
8 -95 7 -205 l0 -200 34 -6 c40 -6 72 -31 72 -56 0 -9 3 -20 7 -24 10 -10 13
-31 15 -126 2 -47 8 -88 13 -92 7 -5 7 -8 0 -8 -11 0 -13 -205 -3 -216 4 -3 2
-19 -2 -35 -5 -16 -5 -42 0 -58 4 -16 6 -32 3 -34 -8 -8 -10 -108 -2 -113 4
-2 4 -18 -1 -34 -5 -17 -5 -43 0 -59 4 -16 6 -32 3 -34 -8 -8 -9 -108 -2 -113
4 -2 4 -18 -1 -34 -5 -17 -5 -43 0 -59 4 -16 6 -32 3 -35 -6 -5 -8 -89 -3
-111 1 -5 1 -14 0 -20 -4 -21 0 -116 5 -125 4 -6 2 -10 -2 -10 -7 0 -9 -54 -2
-86 1 -5 0 -13 -1 -19 -4 -21 0 -116 5 -125 4 -6 2 -10 -2 -10 -9 0 -8 -74 2
-89 3 -5 2 -12 -2 -14 -5 -3 -7 -29 -5 -59 1 -29 2 -62 1 -73 0 -11 0 -28 0
-37 2 -33 2 -63 1 -118 -1 -30 0 -69 2 -87 2 -17 0 -29 -4 -27 -5 3 -6 -7 -2
-22 4 -16 7 -33 6 -39 -1 -5 -2 -37 -2 -70 0 -33 0 -69 -1 -80 -1 -29 0 -47 4
-75 2 -14 1 -29 -1 -33 -2 -4 -5 -83 -7 -175 -6 -230 -29 -315 -113 -421 -12
-15 -19 -37 -17 -60 1 -20 -2 -44 -7 -53 -5 -10 -4 -19 2 -23 9 -5 9 -18 0
-60 -1 -5 -1 -12 0 -15 6 -15 4 -448 -2 -462 -5 -10 -4 -20 3 -23 6 -4 8 -13
5 -21 -4 -10 0 -14 12 -12 9 2 19 5 22 8 9 9 101 70 105 70 3 0 53 31 111 70
58 38 107 70 109 70 8 0 100 65 107 75 4 6 8 7 8 3 0 -6 178 107 206 131 7 6
27 18 45 28 35 19 186 116 204 131 6 4 26 17 45 28 19 10 37 21 40 24 3 3 13
10 22 15 191 114 352 228 418 295 79 81 130 142 142 169 4 9 7 12 8 6 0 -5 7
4 16 21 8 18 23 40 32 51 9 10 36 54 58 98 82 158 147 346 179 518 3 15 8 39
11 55 6 28 10 57 19 132 3 25 8 61 11 80 3 19 5 41 4 48 0 6 1 20 1 30 3 44 0
541 -4 577 -26 251 -124 466 -223 491 -13 3 -24 11 -24 16 0 6 -6 8 -14 5 -7
-3 -18 -1 -24 5 -6 6 -31 10 -56 10 -51 -1 -60 14 -28 46 9 10 23 27 29 38 7
10 23 35 35 54 13 19 29 47 37 63 8 15 18 27 23 27 5 0 7 4 3 9 -3 5 -1 12 5
16 6 4 8 11 5 16 -4 5 -1 9 4 9 6 0 10 3 9 8 -1 4 7 25 17 47 10 22 19 42 19
45 1 3 7 15 14 28 7 12 11 22 8 22 -2 0 4 25 15 56 31 87 69 236 63 245 -3 5
-1 9 3 9 5 0 9 8 9 18 0 9 4 40 9 67 4 28 9 64 10 80 2 17 4 30 5 30 9 0 21
492 12 508 -2 5 -6 38 -8 75 -4 64 -11 127 -14 127 -1 0 -3 11 -6 25 -16 95
-29 144 -49 195 -35 88 -48 108 -110 168 -61 60 -89 70 -191 74 -50 1 -93 1
-95 -2z m-198 -1044 c16 -12 27 -26 24 -32 -4 -5 -2 -9 3 -9 8 0 23 -40 39
-104 12 -46 9 -311 -4 -375 -14 -70 -21 -96 -23 -96 -1 0 -3 -8 -5 -17 -6 -34
-56 -131 -87 -171 -34 -44 -120 -132 -134 -138 -21 -9 -160 -104 -166 -113 -5
-7 -8 -7 -8 -1 0 6 -6 3 -13 -5 -17 -21 -93 -61 -101 -53 -3 4 -6 212 -6 462
l0 456 73 48 c39 26 79 52 87 57 75 51 167 100 174 93 3 -4 6 -1 6 6 0 7 4 10
8 7 4 -2 14 -1 21 4 23 14 80 4 112 -19z m-32 -1688 c44 -6 61 -16 85 -52 15
-22 29 -45 30 -53 2 -7 6 -20 9 -28 3 -8 9 -31 13 -50 9 -44 14 -402 6 -415
-4 -5 -7 -15 -8 -22 -1 -6 -5 -29 -8 -50 -3 -21 -10 -53 -15 -70 -5 -18 -8
-33 -6 -33 9 0 -65 -151 -93 -192 -36 -52 -86 -104 -132 -138 -18 -14 -38 -30
-45 -36 -6 -6 -24 -18 -40 -27 -17 -8 -41 -24 -54 -36 -13 -11 -28 -18 -32
-15 -5 3 -9 1 -9 -4 0 -4 -19 -19 -42 -32 -24 -13 -45 -26 -48 -29 -11 -13
-48 -29 -54 -24 -3 4 -6 247 -6 542 l0 536 98 65 c53 35 99 65 102 65 3 0 23
13 45 27 51 34 151 79 159 71 3 -4 6 -1 6 6 0 7 5 9 13 4 6 -4 18 -8 26 -10z"/>
<path d="M2969 6028 c0 -7 -2 -250 -2 -540 -1 -344 1 -529 8 -532 7 -3 7 -5 0
-5 -11 -1 -11 -715 -1 -758 4 -12 11 -23 17 -23 5 0 43 -22 84 -50 41 -27 77
-50 80 -50 3 0 11 -5 18 -11 7 -5 27 -20 46 -32 19 -12 46 -30 60 -39 14 -10
40 -25 56 -34 17 -9 44 -28 61 -40 54 -41 65 -34 64 44 -2 156 9 589 15 617 4
17 8 36 8 43 0 6 5 12 10 12 6 0 8 3 4 6 -9 9 21 64 47 86 25 21 101 22 122 1
7 -7 17 -13 22 -13 5 0 10 -6 11 -12 4 -31 5 -2578 1 -2578 -3 0 -5 -26 -5
-58 1 -31 -3 -77 -7 -102 -5 -25 -9 -51 -10 -57 -1 -7 -5 -13 -10 -13 -4 0 -8
-6 -8 -13 0 -18 -35 -37 -59 -32 -11 2 -23 0 -26 -5 -3 -5 -6 -168 -5 -362 1
-403 -11 -357 102 -421 13 -6 31 -21 40 -31 10 -10 18 -16 18 -11 0 4 15 -4
34 -19 19 -14 39 -26 45 -26 6 0 11 -4 11 -10 0 -5 7 -10 15 -10 8 0 15 -4 15
-10 0 -5 4 -10 9 -10 5 0 37 -18 70 -40 33 -22 64 -40 70 -40 5 0 11 -3 13 -7
4 -10 53 -43 91 -62 15 -8 27 -18 27 -23 0 -4 5 -8 11 -8 7 0 34 -16 60 -35
27 -19 54 -35 59 -35 6 0 10 -4 10 -9 0 -5 8 -11 18 -15 15 -5 38 -18 66 -39
54 -38 86 -55 87 -44 1 7 3 167 4 356 2 343 2 343 -21 375 -25 33 -68 109 -65
114 1 1 -5 15 -13 30 -8 15 -16 57 -19 94 -2 36 -8 72 -12 79 -6 8 -4 10 5 4
10 -6 11 -4 4 6 -5 8 -9 568 -9 1341 l-1 1328 21 -6 c11 -4 27 -16 35 -26 8
-11 25 -30 38 -41 12 -11 22 -24 22 -29 0 -5 9 -18 20 -30 11 -12 20 -28 20
-35 0 -7 4 -13 9 -13 8 0 36 -87 33 -102 -1 -5 2 -8 6 -8 5 0 9 -6 9 -12 1
-21 14 -102 18 -108 2 -4 5 -33 6 -66 1 -32 6 -69 10 -81 5 -13 5 -23 -1 -23
-5 0 -5 -12 -1 -27 4 -16 6 -44 4 -63 -5 -43 -5 -33 -2 -157 2 -56 1 -105 -2
-108 -3 -3 -3 -25 1 -49 4 -25 3 -52 -2 -60 -5 -9 -5 -16 -1 -16 4 0 8 -17 8
-37 0 -35 5 -41 63 -80 34 -24 62 -41 62 -38 0 3 8 -3 19 -12 10 -10 41 -31
70 -48 28 -16 51 -33 51 -37 0 -5 5 -8 10 -8 12 0 94 -52 98 -62 2 -5 9 -8 15
-8 7 0 23 -9 37 -20 14 -11 32 -20 42 -20 14 0 16 17 17 156 0 85 3 159 6 165
4 5 3 9 -2 9 -4 0 -6 106 -3 236 3 130 3 238 1 240 -6 6 -1 226 5 236 3 4 2 8
-3 8 -4 0 -7 163 -5 362 1 200 -1 370 -5 378 -3 8 -5 18 -5 23 1 4 -3 7 -9 7
-5 0 -7 4 -4 10 3 5 -3 15 -15 22 -11 7 -20 18 -20 25 0 7 -3 12 -7 11 -5 -1
-60 32 -123 73 -63 41 -136 88 -162 104 -27 17 -48 34 -48 38 0 5 -4 5 -10 2
-5 -3 -10 -1 -10 5 0 6 -4 9 -9 6 -5 -4 -11 -3 -13 1 -3 9 -115 83 -124 83 -3
0 -12 6 -19 13 -32 28 -43 35 -63 41 -12 4 -22 12 -22 17 0 5 -6 9 -13 9 -7 0
-23 9 -35 20 -12 11 -25 20 -30 20 -4 0 -17 7 -27 15 -11 9 -60 41 -110 72
-49 31 -91 60 -93 65 -2 4 -13 8 -24 8 -12 0 -18 3 -15 6 6 7 -43 39 -75 50
-10 4 -18 10 -18 15 0 5 -7 9 -15 9 -8 0 -15 4 -15 8 0 5 -20 19 -45 32 -25
13 -50 29 -56 37 -6 7 -16 13 -21 13 -5 0 -16 6 -23 13 -31 27 -45 37 -52 39
-5 0 -41 23 -81 50 -41 26 -78 48 -83 48 -5 0 -12 7 -15 15 -4 8 -11 15 -18
15 -6 0 -41 20 -78 45 -37 25 -70 45 -73 45 -4 0 -13 6 -20 13 -32 28 -43 35
-63 41 -12 4 -22 12 -22 17 0 5 -4 9 -9 9 -6 0 -29 13 -53 28 -239 158 -227
151 -229 130z"/>
<path d="M6905 5609 c-22 -4 -58 -10 -80 -14 -58 -10 -59 -10 -72 -18 -7 -5
-13 -6 -13 -3 0 11 -146 -47 -176 -70 -17 -13 -36 -24 -42 -24 -7 0 -12 -4
-12 -8 0 -5 -20 -19 -45 -32 -25 -13 -45 -27 -45 -32 0 -4 -7 -8 -15 -8 -8 0
-15 -4 -15 -10 0 -5 -5 -10 -11 -10 -5 0 -37 -18 -69 -40 -32 -22 -62 -40 -65
-40 -3 0 -11 -5 -18 -10 -17 -15 -177 -120 -182 -120 -7 0 -125 -122 -159
-165 -17 -21 -41 -50 -53 -64 -13 -13 -23 -27 -23 -32 0 -4 -6 -14 -13 -21
-47 -48 -211 -385 -231 -473 -2 -5 -9 -30 -16 -55 -8 -25 -14 -48 -16 -52 -1
-5 -3 -11 -4 -15 -1 -5 -3 -12 -4 -18 -1 -5 -5 -23 -9 -40 -11 -44 -18 -76
-23 -107 -2 -16 -6 -43 -9 -60 -24 -141 -43 -502 -45 -833 0 -5 0 -46 0 -90 0
-44 0 -88 0 -97 0 -10 0 -38 0 -63 0 -25 0 -51 0 -57 0 -7 1 -24 3 -38 2 -14
-1 -31 -6 -37 -5 -7 -5 -13 -1 -13 11 0 11 -91 0 -108 -4 -7 -4 -12 1 -12 10
0 9 -282 -1 -299 -4 -6 -4 -11 1 -11 10 0 9 -132 -1 -148 -4 -7 -4 -12 1 -12
4 0 7 -26 5 -57 -1 -32 -2 -64 -2 -70 0 -7 0 -33 0 -58 0 -25 0 -52 0 -60 0
-8 0 -35 0 -60 0 -25 0 -51 0 -57 -1 -7 1 -37 2 -65 2 -29 0 -53 -5 -53 -4 0
-5 -5 -1 -12 12 -19 11 -308 -1 -308 -7 0 -7 -3 0 -8 6 -4 11 -32 11 -62 4
-172 20 -431 30 -470 4 -14 8 -36 10 -50 1 -14 5 -34 7 -45 3 -11 8 -33 12
-50 14 -60 84 -205 102 -212 7 -3 11 -8 8 -13 -2 -4 7 -13 20 -20 14 -7 25
-17 25 -21 0 -8 53 -40 75 -45 6 -2 21 -5 34 -8 13 -3 26 -8 29 -10 2 -3 19 2
36 11 32 17 172 106 192 122 7 6 27 18 45 28 49 27 123 77 127 86 2 4 8 7 12
7 5 0 62 35 127 77 65 43 121 76 126 75 4 -1 7 2 7 7 0 4 20 19 45 32 25 13
45 27 45 31 0 5 5 8 10 8 13 0 162 99 172 114 4 6 8 7 8 3 0 -10 119 69 145
97 48 51 105 125 105 136 0 6 4 9 8 6 4 -3 16 11 27 30 10 19 23 34 28 34 6 0
8 3 5 6 -4 3 1 14 10 24 28 31 38 44 45 63 3 9 11 17 17 17 5 0 10 5 10 11 0
6 9 23 19 38 19 26 20 52 19 808 -1 710 -3 781 -17 775 -31 -13 -81 -46 -81
-54 0 -4 -9 -8 -19 -8 -11 0 -21 -4 -23 -8 -1 -5 -34 -29 -73 -53 -38 -24 -71
-47 -73 -51 -2 -4 -10 -8 -18 -8 -8 0 -14 -5 -14 -12 0 -6 -2 -9 -5 -6 -5 4
-141 -80 -215 -132 -8 -6 -20 -14 -26 -18 -8 -5 -13 -96 -17 -297 -3 -159 -8
-308 -11 -330 -3 -22 -8 -58 -11 -80 -6 -51 -11 -74 -23 -119 -6 -20 -8 -36
-5 -36 3 0 0 -7 -7 -15 -7 -8 -9 -15 -5 -15 4 0 3 -6 -3 -12 -5 -7 -13 -28
-17 -46 -3 -17 -11 -32 -17 -32 -6 0 -9 -3 -5 -6 3 -3 -2 -14 -11 -25 -9 -11
-15 -21 -12 -22 12 -6 -91 -113 -146 -150 -111 -75 -197 -52 -239 65 -43 120
-44 140 -44 1238 0 492 1 918 3 945 5 67 17 196 21 215 2 8 8 35 14 60 7 25
14 56 17 70 3 13 9 29 15 36 5 6 6 14 2 18 -4 4 -2 11 5 15 7 4 14 18 15 29 1
12 5 22 10 22 4 0 5 5 2 10 -3 6 -2 10 3 10 5 0 14 11 20 25 14 31 23 41 85
106 26 27 47 46 47 42 0 -5 7 1 16 12 8 11 16 19 17 17 1 -2 16 2 32 8 51 20
97 19 127 -3 16 -12 28 -27 28 -34 0 -7 3 -13 8 -13 10 0 32 -50 32 -72 0 -10
4 -18 8 -18 8 0 14 -42 16 -107 1 -18 3 -33 7 -33 5 0 6 -24 8 -190 l1 -80 51
33 c27 17 62 39 77 47 14 8 32 21 40 28 7 6 17 12 21 12 4 0 21 11 37 25 16
14 32 25 36 25 4 0 49 28 100 62 51 34 96 63 100 63 4 0 13 6 20 13 6 6 18 12
26 12 7 0 10 5 7 10 -3 6 0 10 8 10 8 0 26 11 41 25 15 14 23 25 19 25 -4 0
-8 288 -7 640 1 582 0 641 -15 639 -9 -1 -18 0 -21 1 -13 6 -210 5 -245 -1z"/>
</g>
</svg>
